<?xml version="1.0" encoding="UTF-8"?>
<svg width="2305px" height="600px" viewBox="0 0 2305 600" version="1.1" xmlns="http://www.w3.org/2000/svg" xmlns:xlink="http://www.w3.org/1999/xlink">
    <title>Untitled 36</title>
    <defs>
        <path d="M130.173,16.921 C104.708,28.135 82.289,43.625 62.906,63.381 L62.906,63.381 C43.525,83.146 28.32,105.85 17.302,131.503 L17.302,131.503 C6.276,157.154 0.771,184.233 0.771,212.735 L0.771,212.735 C0.771,242.377 6.276,270.025 17.302,295.678 L17.302,295.678 C28.32,321.33 43.525,343.758 62.906,362.944 L62.906,362.944 C82.289,382.139 104.708,397.147 130.173,407.978 L130.173,407.978 C155.63,418.81 182.993,424.225 212.261,424.225 L212.261,424.225 C241.522,424.225 268.884,418.81 294.349,407.978 L294.349,407.978 C319.806,397.147 342.519,381.952 362.471,362.374 L362.471,362.374 C374.977,350.109 385.722,336.684 394.718,322.103 L394.718,322.103 C403.969,337.922 415.065,352.318 428.093,365.209 L428.093,365.209 C447.477,384.412 469.886,399.42 495.365,410.252 L495.365,410.252 C520.819,421.084 548.17,426.5 577.44,426.5 L577.44,426.5 C580.171,426.5 582.855,426.455 585.541,426.342 L585.541,426.342 C585.548,426.342 585.554,426.341 585.562,426.341 L585.562,426.341 L585.423,426.443 L810.595,426.443 L810.595,362.026 L730.24,362.026 C748.948,343.093 763.57,321.429 774.109,297.079 L774.109,297.079 C785.122,271.624 790.65,244.273 790.65,215.005 L790.65,215.005 C790.65,186.503 785.122,159.422 774.109,133.763 L774.109,133.763 C763.074,108.104 747.684,85.403 727.937,65.634 L727.937,65.634 C708.169,45.888 685.467,30.407 659.809,19.193 L659.809,19.193 C634.172,7.977 606.889,2.38 578.004,2.38 L578.004,2.38 C548.374,2.38 520.819,7.977 495.365,19.193 L495.365,19.193 C469.886,30.407 447.477,45.888 428.093,65.634 L428.093,65.634 C415.823,78.147 405.237,91.845 396.318,106.714 L396.318,106.714 C387.043,90.979 375.886,76.516 362.757,63.381 L362.757,63.381 C342.991,43.625 320.287,28.135 294.635,16.921 L294.635,16.921 C268.982,5.716 241.709,0.104 212.832,0.104 L212.832,0.104 C183.19,0.104 155.63,5.716 130.173,16.921 M157.82,348.978 C140.149,341.38 124.66,330.834 111.362,317.34 L111.362,317.34 C98.054,303.854 87.704,288.177 80.293,270.311 L80.293,270.311 C72.883,252.452 69.178,233.069 69.178,212.164 L69.178,212.164 C69.178,192.026 72.785,172.929 80.008,154.875 L80.008,154.875 C87.224,136.829 97.395,121.055 110.506,107.559 L110.506,107.559 C123.617,94.074 138.91,83.431 156.396,75.637 L156.396,75.637 C173.873,67.852 192.684,63.95 212.832,63.95 L212.832,63.95 C232.97,63.95 251.783,67.754 269.267,75.352 L269.267,75.352 C286.743,82.958 301.947,93.594 314.871,107.275 L314.871,107.275 C327.787,120.956 338.048,136.731 345.655,154.589 L345.655,154.589 C353.253,172.457 357.055,191.839 357.055,212.735 L357.055,212.735 C357.055,233.257 353.351,252.452 345.939,270.311 L345.939,270.311 C338.529,288.177 328.455,303.854 315.727,317.34 L315.727,317.34 C302.99,330.834 287.981,341.38 270.692,348.978 L270.692,348.978 C253.395,356.585 234.681,360.379 214.542,360.379 L214.542,360.379 C194.395,360.379 175.494,356.585 157.82,348.978 M523.009,351.239 C505.339,343.635 489.836,333.006 476.544,319.331 L476.544,319.331 C463.229,305.632 452.893,289.881 445.469,272.008 L445.469,272.008 C438.067,254.135 434.366,235.157 434.366,215.005 L434.366,215.005 C434.366,194.852 437.977,175.941 445.198,158.271 L445.198,158.271 C452.397,140.602 462.575,124.941 475.686,111.242 L475.686,111.242 C488.797,97.566 504.097,86.938 521.587,79.332 L521.587,79.332 C539.054,71.727 557.875,67.936 578.004,67.936 L578.004,67.936 C598.156,67.936 616.954,71.727 634.443,79.332 L634.443,79.332 C651.933,86.938 667.12,97.476 680.051,110.971 L680.051,110.971 C692.959,124.466 703.227,140.127 710.832,158 L710.832,158 C718.438,175.85 722.228,194.852 722.228,215.005 L722.228,215.005 C722.228,235.517 718.528,254.722 711.125,272.572 L711.125,272.572 C703.701,290.444 693.635,306.129 680.908,319.602 L680.908,319.602 C668.181,333.096 653.152,343.635 635.865,351.239 L635.865,351.239 C618.579,358.845 599.871,362.636 579.719,362.636 L579.719,362.636 C559.567,362.636 540.679,358.845 523.009,351.239" id="path-1"></path>
        <linearGradient x1="-3.0623938e-05%" y1="50.0000756%" x2="99.9999587%" y2="50.0000756%" id="linearGradient-3">
            <stop stop-color="#22264C" offset="0%"></stop>
            <stop stop-color="#D6267C" offset="100%"></stop>
        </linearGradient>
    </defs>
    <g id="Page-1" stroke="none" stroke-width="1" fill="none" fill-rule="evenodd">
        <g id="Group-3" transform="translate(540.386400, 172.167100)">
            <mask id="mask-2" fill="white">
                <use xlink:href="#path-1"></use>
            </mask>
            <g id="Clip-2"></g>
            <path d="M130.173,16.921 C104.708,28.135 82.289,43.625 62.906,63.381 L62.906,63.381 C43.525,83.146 28.32,105.85 17.302,131.503 L17.302,131.503 C6.276,157.154 0.771,184.233 0.771,212.735 L0.771,212.735 C0.771,242.377 6.276,270.025 17.302,295.678 L17.302,295.678 C28.32,321.33 43.525,343.758 62.906,362.944 L62.906,362.944 C82.289,382.139 104.708,397.147 130.173,407.978 L130.173,407.978 C155.63,418.81 182.993,424.225 212.261,424.225 L212.261,424.225 C241.522,424.225 268.884,418.81 294.349,407.978 L294.349,407.978 C319.806,397.147 342.519,381.952 362.471,362.374 L362.471,362.374 C374.977,350.109 385.722,336.684 394.718,322.103 L394.718,322.103 C403.969,337.922 415.065,352.318 428.093,365.209 L428.093,365.209 C447.477,384.412 469.886,399.42 495.365,410.252 L495.365,410.252 C520.819,421.084 548.17,426.5 577.44,426.5 L577.44,426.5 C580.171,426.5 582.855,426.455 585.541,426.342 L585.541,426.342 C585.548,426.342 585.554,426.341 585.562,426.341 L585.562,426.341 L585.423,426.443 L810.595,426.443 L810.595,362.026 L730.24,362.026 C748.948,343.093 763.57,321.429 774.109,297.079 L774.109,297.079 C785.122,271.624 790.65,244.273 790.65,215.005 L790.65,215.005 C790.65,186.503 785.122,159.422 774.109,133.763 L774.109,133.763 C763.074,108.104 747.684,85.403 727.937,65.634 L727.937,65.634 C708.169,45.888 685.467,30.407 659.809,19.193 L659.809,19.193 C634.172,7.977 606.889,2.38 578.004,2.38 L578.004,2.38 C548.374,2.38 520.819,7.977 495.365,19.193 L495.365,19.193 C469.886,30.407 447.477,45.888 428.093,65.634 L428.093,65.634 C415.823,78.147 405.237,91.845 396.318,106.714 L396.318,106.714 C387.043,90.979 375.886,76.516 362.757,63.381 L362.757,63.381 C342.991,43.625 320.287,28.135 294.635,16.921 L294.635,16.921 C268.982,5.716 241.709,0.104 212.832,0.104 L212.832,0.104 C183.19,0.104 155.63,5.716 130.173,16.921 M157.82,348.978 C140.149,341.38 124.66,330.834 111.362,317.34 L111.362,317.34 C98.054,303.854 87.704,288.177 80.293,270.311 L80.293,270.311 C72.883,252.452 69.178,233.069 69.178,212.164 L69.178,212.164 C69.178,192.026 72.785,172.929 80.008,154.875 L80.008,154.875 C87.224,136.829 97.395,121.055 110.506,107.559 L110.506,107.559 C123.617,94.074 138.91,83.431 156.396,75.637 L156.396,75.637 C173.873,67.852 192.684,63.95 212.832,63.95 L212.832,63.95 C232.97,63.95 251.783,67.754 269.267,75.352 L269.267,75.352 C286.743,82.958 301.947,93.594 314.871,107.275 L314.871,107.275 C327.787,120.956 338.048,136.731 345.655,154.589 L345.655,154.589 C353.253,172.457 357.055,191.839 357.055,212.735 L357.055,212.735 C357.055,233.257 353.351,252.452 345.939,270.311 L345.939,270.311 C338.529,288.177 328.455,303.854 315.727,317.34 L315.727,317.34 C302.99,330.834 287.981,341.38 270.692,348.978 L270.692,348.978 C253.395,356.585 234.681,360.379 214.542,360.379 L214.542,360.379 C194.395,360.379 175.494,356.585 157.82,348.978 M523.009,351.239 C505.339,343.635 489.836,333.006 476.544,319.331 L476.544,319.331 C463.229,305.632 452.893,289.881 445.469,272.008 L445.469,272.008 C438.067,254.135 434.366,235.157 434.366,215.005 L434.366,215.005 C434.366,194.852 437.977,175.941 445.198,158.271 L445.198,158.271 C452.397,140.602 462.575,124.941 475.686,111.242 L475.686,111.242 C488.797,97.566 504.097,86.938 521.587,79.332 L521.587,79.332 C539.054,71.727 557.875,67.936 578.004,67.936 L578.004,67.936 C598.156,67.936 616.954,71.727 634.443,79.332 L634.443,79.332 C651.933,86.938 667.12,97.476 680.051,110.971 L680.051,110.971 C692.959,124.466 703.227,140.127 710.832,158 L710.832,158 C718.438,175.85 722.228,194.852 722.228,215.005 L722.228,215.005 C722.228,235.517 718.528,254.722 711.125,272.572 L711.125,272.572 C703.701,290.444 693.635,306.129 680.908,319.602 L680.908,319.602 C668.181,333.096 653.152,343.635 635.865,351.239 L635.865,351.239 C618.579,358.845 599.871,362.636 579.719,362.636 L579.719,362.636 C559.567,362.636 540.679,358.845 523.009,351.239" id="Fill-1" fill="url(#linearGradient-3)" mask="url(#mask-2)"></path>
        </g>
        <path d="M66.172,293.1059 C79.662,267.4159 98.09,247.1739 121.445,232.3829 C144.8,217.5909 170.747,210.1949 199.296,210.1949 C227.322,210.1949 252.355,217.3359 274.421,231.6039 C296.474,245.8849 313.467,265.0799 325.413,289.2129 C335.075,308.7539 339.804,330.4249 339.603,354.2179 L48.804,354.2179 C50.771,331.8059 56.543,311.4269 66.172,293.1059 M336.312,225.7659 C319.695,207.6049 299.844,193.2019 276.756,182.5589 C253.657,171.9269 227.833,166.5999 199.296,166.5999 C161.927,166.5999 128.184,175.9409 98.09,194.6259 C67.984,213.3099 44.107,238.8779 26.468,271.3079 C8.818,303.7499 0,340.7279 0,382.2439 C0,423.2489 9.074,460.0939 27.247,492.7909 C45.408,525.4879 70.065,551.3129 101.205,570.2519 C132.344,589.2039 167.377,598.6679 206.302,598.6679 C232.771,598.6679 257.294,594.3859 279.87,585.8219 C302.447,577.2579 322.299,565.3259 339.426,550.0109 C356.553,534.7089 369.52,517.4479 378.351,498.2409 L339.426,477.2209 C325.413,500.5759 307.24,519.3939 284.931,533.6629 C262.609,547.9429 236.396,555.0709 206.302,555.0709 C176.719,555.0709 149.727,547.8089 125.338,533.2729 C100.937,518.7499 81.608,498.3749 67.34,472.1609 C55.183,449.8549 48.795,424.8069 48.118,397.0359 L386.136,397.0359 C387.17,390.8079 387.948,384.9689 388.471,379.5199 C388.982,374.0699 389.25,368.7539 389.25,363.5599 C389.25,337.0909 384.579,312.0569 375.237,288.4349 C365.895,264.8239 352.916,243.9389 336.312,225.7659" id="Fill-4" fill="#FFFFFF"></path>
        <polygon id="Fill-6" fill="#FFFFFF" points="442.2384 598.6671 488.1694 598.6671 488.1694 9.3421 442.2384 9.3421"></polygon>
        <path d="M1678.9362,425.0615 C1678.9362,449.9735 1674.2652,472.0395 1664.9222,491.2345 C1655.5812,510.4415 1642.2122,525.4885 1624.8302,536.3875 C1607.4352,547.2865 1586.5492,552.7355 1562.1612,552.7355 C1540.8742,552.7355 1521.4112,548.1985 1503.7732,539.1115 C1486.1242,530.0375 1472.2442,516.6695 1462.1242,499.0195 C1452.0022,481.3815 1446.9432,460.6175 1446.9432,436.7395 L1446.9432,175.9415 L1401.0112,175.9415 L1401.0112,439.8535 C1401.0112,472.5505 1408.0172,500.8435 1422.0312,524.7095 C1436.0432,548.5875 1454.8492,566.8825 1478.4722,579.5945 C1502.0822,592.3055 1527.9072,598.6675 1555.9332,598.6675 C1588.6292,598.6675 1616.9112,590.4935 1640.7902,574.1445 C1656.7592,563.2045 1669.4652,549.8715 1678.9362,534.1675 L1678.9362,589.3255 L1725.6462,589.3255 L1725.6462,175.9415 L1678.9362,175.9415 L1678.9362,425.0615 Z" id="Fill-8" fill="#FFFFFF"></path>
        <polygon id="Fill-10" fill="#FFFFFF" points="1794.2174 598.6671 1840.1494 598.6671 1840.1494 185.2831 1794.2174 185.2831"></polygon>
        <path d="M2236.2653,469.436 C2222.2523,494.871 2203.4343,514.978 2179.8243,529.77 C2156.2023,544.561 2129.3433,551.957 2099.2483,551.957 C2069.1433,551.957 2042.4183,544.561 2019.0643,529.77 C1995.7083,514.978 1977.2803,494.871 1963.7893,469.436 C1950.2873,444.013 1943.5493,415.209 1943.5493,383.022 C1943.5493,350.326 1950.2873,321.266 1963.7893,295.831 C1977.2803,270.408 1995.8293,250.288 2019.4533,235.497 C2043.0633,220.705 2069.6653,213.31 2099.2483,213.31 C2129.3433,213.31 2156.2023,220.705 2179.8243,235.497 C2203.4343,250.288 2222.2523,270.408 2236.2653,295.831 C2250.2783,321.266 2257.2853,350.326 2257.2853,383.022 C2257.2853,415.209 2250.2783,444.013 2236.2653,469.436 L2236.2653,469.436 Z M2258.0633,0 L2258.0633,252.312 C2243.4623,228.62 2223.7593,209.12 2198.8973,193.847 C2169.3143,175.686 2135.5713,166.6 2097.6923,166.6 C2059.2783,166.6 2024.6343,176.075 1993.7623,195.015 C1962.8773,213.966 1938.6103,239.657 1920.9723,272.086 C1903.3233,304.528 1894.5033,341.507 1894.5033,383.022 C1894.5033,424.028 1903.3233,460.751 1920.9723,493.18 C1938.6103,525.622 1962.8773,551.312 1993.7623,570.252 C2024.6343,589.204 2059.2783,598.667 2097.6923,598.667 C2135.5713,598.667 2169.4363,589.447 2199.2863,571.031 C2224.2353,555.633 2243.8133,535.403 2258.0633,510.379 L2258.0633,589.325 L2304.7733,589.325 L2304.7733,0 L2258.0633,0 Z" id="Fill-11" fill="#FFFFFF"></path>
    </g>
</svg>